<mxfile host="app.diagrams.net" modified="2024-03-27T04:19:11.482Z" agent="Mozilla/5.0 (Windows NT 10.0; Win64; x64; rv:125.0) Gecko/20100101 Firefox/125.0" etag="la1AdqlxxxCbWtKg1oxr" version="24.2.0" type="device">
  <diagram name="Page-1" id="b3vR_Sor38G9pUzsrJoX">
    <mxGraphModel dx="4297" dy="1287" grid="1" gridSize="10" guides="1" tooltips="1" connect="1" arrows="1" fold="1" page="1" pageScale="1" pageWidth="850" pageHeight="1100" math="0" shadow="0">
      <root>
        <mxCell id="0" />
        <mxCell id="1" parent="0" />
        <mxCell id="JFmWj4dNPi0uh9bZ9UNa-2" style="edgeStyle=orthogonalEdgeStyle;rounded=0;orthogonalLoop=1;jettySize=auto;html=1;exitX=0.5;exitY=1;exitDx=0;exitDy=0;entryX=0.5;entryY=0;entryDx=0;entryDy=0;strokeColor=#FFFFFF;" parent="1" edge="1">
          <mxGeometry relative="1" as="geometry">
            <mxPoint x="400" y="565" as="sourcePoint" />
            <mxPoint x="400.0000000000001" y="610" as="targetPoint" />
          </mxGeometry>
        </mxCell>
        <mxCell id="xGqxZftsRafP8o-526aq-41" style="edgeStyle=orthogonalEdgeStyle;rounded=0;orthogonalLoop=1;jettySize=auto;html=1;exitX=1;exitY=0.5;exitDx=0;exitDy=0;entryX=0;entryY=0.5;entryDx=0;entryDy=0;strokeColor=#EBEBEB;" parent="1" edge="1">
          <mxGeometry relative="1" as="geometry">
            <mxPoint x="440" y="650" as="sourcePoint" />
            <mxPoint x="640" y="650" as="targetPoint" />
          </mxGeometry>
        </mxCell>
        <mxCell id="xGqxZftsRafP8o-526aq-45" style="edgeStyle=orthogonalEdgeStyle;rounded=0;orthogonalLoop=1;jettySize=auto;html=1;exitX=0;exitY=0.5;exitDx=0;exitDy=0;entryX=0.5;entryY=1;entryDx=0;entryDy=0;strokeColor=#FFFFFF;" parent="1" edge="1">
          <mxGeometry relative="1" as="geometry">
            <mxPoint x="360.0000000000001" y="650" as="sourcePoint" />
            <mxPoint x="175" y="510" as="targetPoint" />
          </mxGeometry>
        </mxCell>
        <mxCell id="xGqxZftsRafP8o-526aq-44" style="edgeStyle=orthogonalEdgeStyle;rounded=0;orthogonalLoop=1;jettySize=auto;html=1;strokeColor=#F7F7F7;" parent="1" edge="1">
          <mxGeometry relative="1" as="geometry">
            <mxPoint x="660" y="440" as="targetPoint" />
            <mxPoint x="665.0769230769231" y="635" as="sourcePoint" />
          </mxGeometry>
        </mxCell>
        <mxCell id="2OqAntXqID-4R9imomV--3" value="" style="edgeStyle=orthogonalEdgeStyle;rounded=0;orthogonalLoop=1;jettySize=auto;html=1;" edge="1" parent="1" source="2OqAntXqID-4R9imomV--1" target="2OqAntXqID-4R9imomV--2">
          <mxGeometry relative="1" as="geometry" />
        </mxCell>
        <mxCell id="2OqAntXqID-4R9imomV--1" value="&lt;font style=&quot;font-size: 24px;&quot;&gt;Start&lt;/font&gt;" style="ellipse;whiteSpace=wrap;html=1;" vertex="1" parent="1">
          <mxGeometry x="-170" width="520" height="170" as="geometry" />
        </mxCell>
        <mxCell id="2OqAntXqID-4R9imomV--5" value="" style="edgeStyle=orthogonalEdgeStyle;rounded=0;orthogonalLoop=1;jettySize=auto;html=1;" edge="1" parent="1" source="2OqAntXqID-4R9imomV--2" target="2OqAntXqID-4R9imomV--4">
          <mxGeometry relative="1" as="geometry" />
        </mxCell>
        <mxCell id="2OqAntXqID-4R9imomV--2" value="&lt;font style=&quot;font-size: 18px;&quot;&gt;profit = 0&lt;br&gt;&lt;/font&gt;" style="whiteSpace=wrap;html=1;" vertex="1" parent="1">
          <mxGeometry x="30" y="250" width="120" height="60" as="geometry" />
        </mxCell>
        <mxCell id="2OqAntXqID-4R9imomV--7" value="" style="edgeStyle=orthogonalEdgeStyle;rounded=0;orthogonalLoop=1;jettySize=auto;html=1;" edge="1" parent="1" source="2OqAntXqID-4R9imomV--4" target="2OqAntXqID-4R9imomV--6">
          <mxGeometry relative="1" as="geometry" />
        </mxCell>
        <mxCell id="2OqAntXqID-4R9imomV--8" value="&lt;font size=&quot;3&quot;&gt;True&lt;/font&gt;" style="edgeLabel;html=1;align=center;verticalAlign=middle;resizable=0;points=[];" vertex="1" connectable="0" parent="2OqAntXqID-4R9imomV--7">
          <mxGeometry x="0.0347" relative="1" as="geometry">
            <mxPoint as="offset" />
          </mxGeometry>
        </mxCell>
        <mxCell id="2OqAntXqID-4R9imomV--18" value="" style="edgeStyle=orthogonalEdgeStyle;rounded=0;orthogonalLoop=1;jettySize=auto;html=1;" edge="1" parent="1" source="2OqAntXqID-4R9imomV--4" target="2OqAntXqID-4R9imomV--17">
          <mxGeometry relative="1" as="geometry" />
        </mxCell>
        <mxCell id="2OqAntXqID-4R9imomV--19" value="&lt;font style=&quot;font-size: 24px;&quot;&gt;fAlse&lt;br&gt;&lt;/font&gt;" style="edgeLabel;html=1;align=center;verticalAlign=middle;resizable=0;points=[];" vertex="1" connectable="0" parent="2OqAntXqID-4R9imomV--18">
          <mxGeometry x="-0.3913" y="6" relative="1" as="geometry">
            <mxPoint x="1" as="offset" />
          </mxGeometry>
        </mxCell>
        <mxCell id="2OqAntXqID-4R9imomV--4" value="&lt;font size=&quot;3&quot;&gt;UserAge =&amp;gt; 18&lt;/font&gt;" style="rhombus;whiteSpace=wrap;html=1;" vertex="1" parent="1">
          <mxGeometry x="280" y="390" width="240" height="100" as="geometry" />
        </mxCell>
        <mxCell id="2OqAntXqID-4R9imomV--22" style="edgeStyle=orthogonalEdgeStyle;rounded=0;orthogonalLoop=1;jettySize=auto;html=1;entryX=1;entryY=0.5;entryDx=0;entryDy=0;" edge="1" parent="1" source="2OqAntXqID-4R9imomV--6" target="2OqAntXqID-4R9imomV--20">
          <mxGeometry relative="1" as="geometry">
            <Array as="points">
              <mxPoint x="700" y="740" />
            </Array>
          </mxGeometry>
        </mxCell>
        <mxCell id="2OqAntXqID-4R9imomV--6" value="&lt;font style=&quot;font-size: 18px;&quot;&gt;profit + 299.90&lt;br&gt;&lt;/font&gt;" style="whiteSpace=wrap;html=1;" vertex="1" parent="1">
          <mxGeometry x="640" y="520" width="120" height="60" as="geometry" />
        </mxCell>
        <mxCell id="2OqAntXqID-4R9imomV--21" value="" style="edgeStyle=orthogonalEdgeStyle;rounded=0;orthogonalLoop=1;jettySize=auto;html=1;" edge="1" parent="1" source="2OqAntXqID-4R9imomV--17" target="2OqAntXqID-4R9imomV--20">
          <mxGeometry relative="1" as="geometry">
            <Array as="points">
              <mxPoint x="20" y="740" />
            </Array>
          </mxGeometry>
        </mxCell>
        <mxCell id="2OqAntXqID-4R9imomV--17" value="&lt;font style=&quot;font-size: 18px;&quot;&gt;profit + 149.90&lt;br&gt;&lt;/font&gt;" style="whiteSpace=wrap;html=1;" vertex="1" parent="1">
          <mxGeometry x="-40" y="520" width="120" height="60" as="geometry" />
        </mxCell>
        <mxCell id="2OqAntXqID-4R9imomV--23" style="edgeStyle=orthogonalEdgeStyle;rounded=0;orthogonalLoop=1;jettySize=auto;html=1;" edge="1" parent="1" source="2OqAntXqID-4R9imomV--20">
          <mxGeometry relative="1" as="geometry">
            <mxPoint x="270" y="740" as="targetPoint" />
          </mxGeometry>
        </mxCell>
        <mxCell id="2OqAntXqID-4R9imomV--25" value="" style="edgeStyle=orthogonalEdgeStyle;rounded=0;orthogonalLoop=1;jettySize=auto;html=1;" edge="1" parent="1" source="2OqAntXqID-4R9imomV--20" target="2OqAntXqID-4R9imomV--24">
          <mxGeometry relative="1" as="geometry" />
        </mxCell>
        <mxCell id="2OqAntXqID-4R9imomV--20" value="&lt;font style=&quot;font-size: 24px;&quot;&gt;display profit&lt;/font&gt;" style="whiteSpace=wrap;html=1;" vertex="1" parent="1">
          <mxGeometry x="350" y="710" width="120" height="60" as="geometry" />
        </mxCell>
        <mxCell id="2OqAntXqID-4R9imomV--24" value="&lt;font style=&quot;font-size: 24px;&quot;&gt;End&lt;/font&gt;" style="ellipse;whiteSpace=wrap;html=1;" vertex="1" parent="1">
          <mxGeometry x="370" y="920" width="80" height="80" as="geometry" />
        </mxCell>
      </root>
    </mxGraphModel>
  </diagram>
</mxfile>
